<?xml version="1.0" standalone="no"?>
<!DOCTYPE svg PUBLIC "-//W3C//DTD SVG 20010904//EN"
 "http://www.w3.org/TR/2001/REC-SVG-20010904/DTD/svg10.dtd">
<svg version="1.0" xmlns="http://www.w3.org/2000/svg"
 width="206.000000pt" height="206.000000pt" viewBox="0 0 206.000000 206.000000"
 preserveAspectRatio="xMidYMid meet">
<metadata>
Created by potrace 1.11, written by Peter Selinger 2001-2013
</metadata>
<g transform="translate(0.000000,206.000000) scale(0.100000,-0.100000)"
fill="#000000" stroke="none">
<path d="M287 1312 c-167 -167 -267 -274 -267 -287 0 -12 99 -118 262 -282
225 -226 267 -263 292 -263 25 0 56 26 195 165 l166 164 -108 109 c-73 75
-107 116 -107 132 0 15 31 54 95 119 l95 97 -158 157 c-95 94 -166 157 -178
157 -12 0 -121 -102 -287 -268z"/>
<path d="M945 1240 l-189 -189 189 -191 c104 -104 194 -190 200 -190 5 0 65
55 132 122 l122 122 -54 57 c-70 73 -70 90 -5 154 28 27 50 54 50 59 0 14
-232 246 -245 246 -6 0 -95 -85 -200 -190z"/>
<path d="M1490 1215 l-165 -165 160 -160 c88 -88 164 -160 170 -160 13 0 325
312 325 325 0 10 -311 325 -320 325 -3 0 -79 -74 -170 -165z"/>
</g>
</svg>
